<?xml version="1.0" encoding="UTF-8"?>
<svg width="21px" height="20px" viewBox="0 0 21 20" version="1.1" xmlns="http://www.w3.org/2000/svg" xmlns:xlink="http://www.w3.org/1999/xlink">
    <title>icon-菜单</title>
    <g id="修改规范" stroke="none" stroke-width="1" fill="none" fill-rule="evenodd">
        <g id="轉介系統" transform="translate(-19.000000, -70.000000)" fill="#FFFFFF" fill-rule="nonzero">
            <g id="形状" transform="translate(20.000000, 70.000000)">
                <path d="M18.4476789,2.11308956 L1.58242488,2.11308956 C0.90996316,2.11308956 0.3642594,2.6630902 0.3642594,3.34414568 L0.3642594,3.50957556 C0.3642594,4.1884826 0.90996316,4.29160772 1.58242488,4.29160772 L18.4476789,4.29160772 C19.1201406,4.29160772 19.6658444,4.19063104 19.6658444,3.50957556 L19.6658444,3.34414568 C19.6658444,2.6630902 19.1201406,2.11308956 18.4476789,2.11308956 L18.4476789,2.11308956 Z M16.2025591,8.87852712 L1.58242488,8.87852712 C0.90996316,8.87852712 0.3642594,9.42852776 0.3642594,10.1095832 L0.3642594,9.82598916 C0.3642594,10.5048962 0.90996316,11.0570453 1.58242488,11.0570453 L16.2025591,11.0570453 C16.8750208,11.0570453 17.4207246,10.5070446 17.4207246,9.82598916 L17.4207246,10.1095832 C17.4207246,9.4306762 16.8750208,8.87852712 16.2025591,8.87852712 L16.2025591,8.87852712 Z M13.9595877,15.6461131 L1.58457332,15.6461131 C0.9121116,15.6461131 0.36640784,16.1961138 0.36640784,16.8771692 L0.36640784,17.0425991 C0.36640784,17.7215062 0.9121116,17.8246313 1.58457332,17.8246313 L13.9595877,17.8246313 C14.6320494,17.8246313 15.1777532,17.7236546 15.1777532,17.0425991 L15.1777532,16.8750208 C15.1777532,16.1961138 14.6320494,15.6461131 13.9595877,15.6461131 Z"></path>
            </g>
        </g>
    </g>
</svg>